<svg version="1.1" xmlns="http://www.w3.org/2000/svg" width="38.829px" height="44.827px" viewBox="0 0 38.829 44.827" class="search icon" preserveAspectRatio="xMidYMid meet">
	<path fill="#fff" d="M38.351,39.891L27.486,25.419h-0.785l-0.789,0.788l-1.159-1.602c2.576-2.611,4.169-6.192,4.169-10.145C28.922,6.488,22.436,0,14.461,0C6.487,0,0,6.488,0,14.461c0,7.975,6.487,14.462,14.461,14.462c2.362,0,4.589-0.582,6.562-1.589l1.447,1.649l-0.871,0.872v0.414c0,0,10.698,13.435,11.362,14.098c0.663,0.664,2.155,0.414,2.155,0.414s2.157-1.245,3.234-2.321C39.428,41.381,38.351,39.891,38.351,39.891 M5.108,14.461c0-5.155,4.196-9.353,9.353-9.353c5.158,0,9.353,4.198,9.353,9.353c0,5.159-4.194,9.354-9.353,9.354C9.304,23.815,5.108,19.62,5.108,14.461"/>
</svg>