<svg version="1.1" xmlns="http://www.w3.org/2000/svg" width="105" height="95" preserveAspectRatio="xMinYMid meet" viewBox="0 0 105 95" class="icon address"><path d="M60.145,61.984l-26.67-49.292L13.059,38.258v43.59l45.615,13.243L97.85,70.077V47.27L60.145,61.984z M34.395,23.911c2.97,0,5.378,3.541,5.378,7.909c0,4.368-2.408,7.909-5.378,7.909	c-2.971,0-5.378-3.541-5.378-7.909C29.017,27.452,31.424,23.911,34.395,23.911 M44.695,85.742l-20.6-5.886V47.454l20.6,3.495V85.742z" /><polygon points="0,41.936 32.555,0 78.538,0 104.372,38.89 62.492,54.64 34.823,4.844 2.143,44.661" /></svg>