<svg version="1.1" xmlns="http://www.w3.org/2000/svg" preserveAspectRatio="xMinYMid meet" width="118.523px" height="99.009px" viewBox="0 0 118.523 99.009" class="icon area-search"><path d="M86.001,91.452h-9.809c-1.933,0-3.5-1.566-3.5-3.5c0-1.933,1.567-3.5,3.5-3.5h9.809c1.933,0,3.5,1.567,3.5,3.5C89.501,89.885,87.934,91.452,86.001,91.452 M56.578,91.452H46.77c-1.933,0-3.5-1.566-3.5-3.5c0-1.933,1.567-3.5,3.5-3.5h9.808c1.933,0,3.5,1.567,3.5,3.5C60.078,89.885,58.511,91.452,56.578,91.452 M27.155,91.452h-9.788c-1.933,0-3.51-1.566-3.51-3.5c0-1.933,1.557-3.5,3.49-3.5h9.808c1.933,0,3.5,1.567,3.5,3.5C30.655,89.885,29.088,91.452,27.155,91.452 M3.661,79.732c-1.695,0-3.185-1.235-3.454-2.962C0.069,75.885,0,74.98,0,74.083v-7.649c0-1.934,1.567-3.5,3.5-3.5c1.933,0,3.5,1.566,3.5,3.5v7.652c0,0.539,0.041,1.079,0.124,1.607c0.297,1.91-1.011,3.7-2.921,3.997C4.021,79.718,3.84,79.732,3.661,79.732 M107.5,57.914c-1.934,0-3.5-1.566-3.5-3.5v-9.808c0-1.933,1.566-3.5,3.5-3.5c1.933,0,3.5,1.567,3.5,3.5v9.808C111,56.347,109.433,57.914,107.5,57.914 M3.5,50.318c-1.933,0-3.5-1.567-3.5-3.5V37.01c0-1.933,1.567-3.5,3.5-3.5c1.933,0,3.5,1.567,3.5,3.5v9.808C7,48.751,5.433,50.318,3.5,50.318 M107.5,28.491c-1.934,0-3.5-1.567-3.5-3.5v-7.624c0-0.546-0.043-1.095-0.127-1.631c-0.3-1.91,1.005-3.701,2.914-4.001c1.908-0.298,3.701,1.004,4.001,2.914c0.141,0.895,0.212,1.809,0.212,2.718v7.624C111,26.924,109.433,28.491,107.5,28.491 M3.5,20.881c-1.933,0-3.5-1.553-3.5-3.486v-0.028c0-4.123,1.471-8.12,4.141-11.255C5.395,4.64,7.603,4.464,9.075,5.717c1.472,1.253,1.648,3.462,0.395,4.934C7.877,12.521,7,14.906,7,17.367C7,19.3,5.433,20.881,3.5,20.881 M93.625,7h-9.809c-1.933,0-3.5-1.567-3.5-3.5s1.567-3.5,3.5-3.5h9.809c1.933,0,3.5,1.567,3.5,3.5S95.558,7,93.625,7 M64.202,7h-9.809c-1.933,0-3.5-1.567-3.5-3.5s1.567-3.5,3.5-3.5h9.809c1.933,0,3.5,1.567,3.5,3.5S66.135,7,64.202,7 M34.779,7h-9.808c-1.933,0-3.5-1.567-3.5-3.5s1.567-3.5,3.5-3.5h9.808c1.933,0,3.5,1.567,3.5,3.5S36.712,7,34.779,7"/><path d="M117.406,86.157l-0.494-0.493h0.001L97.191,65.94c2.74-4.721,4.332-10.193,4.37-16.043c0.114-17.907-14.308-32.514-32.213-32.626c-0.072-0.001-0.143-0.001-0.215-0.001C51.33,17.271,36.835,31.651,36.72,49.483C36.607,67.388,51.029,81.995,68.934,82.11c0.072,0,0.14,0,0.212,0c5.951,0,11.528-1.612,16.326-4.416l19.705,19.708l0.002-0.002l0.493,0.492c1.489,1.49,3.904,1.489,5.396,0l6.339-6.338C118.896,90.065,118.896,87.648,117.406,86.157 M68.985,73.841c-13.316-0.086-24.081-10.989-23.997-24.307c0.086-13.231,10.918-23.997,24.146-23.997h0.162c6.45,0.041,12.5,2.591,17.031,7.182c4.532,4.591,7.006,10.672,6.964,17.125c-0.04,6.423-2.572,12.454-7.13,16.98c-4.555,4.526-10.599,7.017-17.017,7.017H68.985z"/></svg>