<svg version="1.1" xmlns="http://www.w3.org/2000/svg" width="125px" height="118px" viewBox="0 0 125 118" class="data-nonfree illustration">
	<style>
		path {
	      fill: none;
	      stroke-linecap: round;
	      stroke-linejoin: round;
	      stroke-miterlimit: 10;
	      stroke: #fff;
	    }
	</style>
	<path d="M98.647,12.963c4.112-1.056,8.304-0.761,12.852-0.37c0.853,2.264,0.807,5.081,0.517,7.803c-0.265,2.487-0.296,4.992-0.309,7.448c-0.021,4.495-0.321,8.991-0.714,13.428c-0.524,5.926-0.647,11.899-0.61,17.77c0.058,8.952-0.162,17.937,0.371,26.875c0.292,4.892,0.229,9.766,0.364,14.646c0.091,3.281-0.014,3.124-3.084,4.386c-1.553,0.638-3.108,0.543-4.589,0.576c-7.356,0.169-14.746,0.473-22.068-0.042c-6.323-0.444-12.665-1.058-18.985-1.632c-4.239-0.385-8.552-0.821-12.963-0.332c-5.684,0.631-11.5,0.281-17.262,0.249c-4.709-0.027-9.425,0.536-14.16,0.417c-3.001-0.076-5.969-1.308-9.036,0.248c0.319-4.426-0.047-8.36,0.397-12.271"/>

	<path d="M32.887,91.444c6.877,0.296,13.766,0.335,20.641,0.37c4.317,0.022,8.651-0.081,12.957,0.153c8.318,0.452,16.657-0.194,24.967,0.641c2.297,0.232,4.636,0.035,7.079,0.035c-0.528-4.554-0.604-9.127-0.974-13.688c-0.243-2.986,0.092-6.07,0.134-9.111c0.142-10.319-0.281-20.642,0.224-30.961c0.238-4.876,0.649-9.774,0.414-14.634c-0.3-6.169,0.422-12.323-0.113-18.489c-0.287-3.315-0.089-3.273-3.407-3.374c-5.682-0.173-11.36-0.619-17.041-0.642c-3.353-0.014-6.718,0.158-10.079,0.184c-2.082,0.016-4.332,0.468-6.207,0.078c-3.643-0.758-7.236-0.299-10.833-0.572c-7.591-0.574-15.193-0.688-22.8-0.72c-4.881-0.021-9.761-0.214-14.641-0.207C9.667,0.51,6.1,0.356,2.641,1.423C2.408,1.495,2.088,1.281,1.688,1.164c0,3.159,0.345,6.327-0.075,9.389c-0.781,5.675-0.335,11.374-0.753,17.06C0.358,34.455,0.317,41.371,1.158,48.25c0.308,2.522,0.089,5.115,0.042,7.673c-0.117,6.168,0.178,12.349,0.636,18.469c0.432,5.775-0.284,11.557,0.838,17.302c9.737,0.39,19.74,0.605,29.734-0.25"/>

	<path d="M23.527,104.643c0.413,2.88,0.026,5.763-0.039,8.64c-0.039,1.733,0.766,2.297,2.188,1.885c2.394-0.693,4.822-0.553,7.208-0.402c7.516,0.475,15.078,0.388,22.55,1.06c9.205,0.827,18.38,1.295,27.613,1.355c6.801,0.045,13.615,0.622,20.402,0.702c3.517,0.041,7.203,0.001,10.822-0.618c2.463-0.422,5.089-0.617,7.655-0.602c1.108,0.007,2.124-0.05,2.869-0.993c-0.383-2.146-0.048-4.305-0.039-6.467c0.04-8.719-0.028-17.441-0.213-26.159c-0.174-8.16-0.646-16.305-0.283-24.483c0.262-5.904-0.288-11.842-0.123-17.755c0.196-7.04-0.58-14.095,0.397-21.126c0.326-2.349-0.347-2.874-2.848-2.875c-3.12-0.002-6.24-0.001-9.36-0.001"/>

	<path d="M89.047,37.444c-1.327,1.553-3.286,2.07-5.067,2.533c-1.446,0.375-2.021,1.172-2.343,2.275c-0.897,3.077-3.504,4.514-5.809,6.206c-1.707,1.253-3.501,0.544-4.735-0.738c-1.996-2.072-4.52-3.1-7-4.287c-0.516-0.247-1.155-0.519-1.416-0.967c-2.243-3.849-5.672-2.53-8.912-2.162c-0.679,0.077-1.293,0.389-1.894,0.577c-2.758,0.861-5.098,0.496-7.238-1.502c-1.417-1.325-2.985-1.355-4.803-0.533c-3.908,1.771-7.445,3.91-10.361,7.186c-2.047,2.298-2.977,4.786-3.057,7.731c-0.027,0.96,0.065,1.927-0.017,2.879c-0.395,4.61,1.822,6.138,5.539,6.932c1.154,0.247,2.261,0.587,3.349,0.999c3.463,1.31,5.024,4.193,4.325,7.911"/>

	<path d="M27.848,62.643c-2.248,1.579-3.941,3.375-3.157,6.489c0.276,1.096-0.388,2.359-0.998,3.045c-1.548,1.741-1.466,3.814-1.023,5.56c0.88,3.456,0.33,6.216-2.244,8.686c-1.516,1.455-1.469,3.354-0.978,5.261"/>

	<path d="M72.728,84.003c0.435-1.627,0.765-3.16-0.701-4.58c-2.579-2.499-1.479-6.055-0.008-7.891c2.686-3.354,2.763-4.678,0.479-8.417c-1.17-1.917-1.64-3.663-0.393-6.065c1.147-2.214,1.101-5.047,1.582-7.607"/>

	<path d="M79.447,27.843c-0.195-1.102-0.417-2.12-1.421-2.904c-1.966-1.535-3.183-3.706-4.631-5.699c-1.333-1.834-3.612-2.684-5.541-3.745c-0.91-0.5-2.516,0.587-3.526,1.548c-2.299,2.185-4.73,3.719-8.184,2.719c-0.998-0.288-2.4-0.153-3.343,0.876c-2.57,2.809-5.897,4.792-8.402,7.679c-0.617,0.711-1.063,1.378-1.251,2.395c-0.451,2.436-1.51,4.735-1.861,7.211"/>

	<path d="M60.728,2.404c-4.214,3.209-5.824,7.559-5.511,12.719c0.106,1.729-1.528,2.864-1.449,4.56"/>

	<path d="M69.127,28.324c0.095,0.89-0.413,2.013,0.959,2.402c1.124,0.32,2.293,0.445,3.344-0.04c0.787-0.362,1.084-1.258,0.959-2.12c-0.164-1.13-1.107-1.041-1.899-0.943c-0.963,0.118-2.056-0.501-2.882,0.461"/>

	<path d="M90.007,47.043c-1.362-1.826-3.195-1.023-4.788-0.666c-1.864,0.418-3.734,1.019-5.488,1.732c-1.037,0.422-1.644,0.17-2.443-0.106"/>

	<path d="M55.927,62.404c-0.96,1.278-2.429,1.559-3.842,1.912c-2.197,0.55-4.242,1.32-5.517,3.367"/>

	<path d="M54.967,73.444c-2.586-0.497-4.791-1.399-6.072-4.045c-0.575-1.188-2.032-1.653-3.525-1.753c-2.165-0.145-4.266-0.953-6.483-0.683"/>

	<path d="M87.848,21.603c-1.904-0.9-3.15-2.622-4.857-3.881c-2.886,0.646-5.693,1.663-8.463,2.801"/>

	<path d="M78.007,57.843c-0.079,0-0.16-0.006-0.239,0.001c-1.346,0.116-3.02,0.117-3.513,1.472c-0.551,1.514,1.246,2.129,2.105,3.055c0.149,0.158,0.44,0.361,0.691,0.507c2.179-2.075,2.345-2.773,1.195-5.035"/>

	<path d="M65.527,50.883c-2.063-2.021-2.062-4.592-1.92-7.2"/>

	<path d="M81.848,23.523c-0.696,0.192-1.019-0.34-1.447-0.711c-0.527-0.459-0.971-0.99-0.691-1.68c0.398-0.984,1.347-0.694,2.138-0.731c0.976-0.046,1.563,0.582,2.242,1.287c-0.471,0.806-0.65,1.907-2.002,1.835"/>

	<path d="M65.527,22.083c-0.094-1.418-0.817-2.542-1.68-3.6"/>

	<path d="M54.728,81.124c-1.584-2.45-3.883-2.895-6.475-2.142c-3.648,1.06-7.215,0.831-10.81-0.242c-2.052-0.612-5.259,1.133-5.722,3.111c-0.181,0.778-0.148,1.645,0.436,2.401c1.759,2.281,4.293,2.647,7.468,1.995c3.746-0.769,7.463-1.786,11.268-2.189c1.927-0.204,3.341-0.67,3.835-2.694"/>

	<path d="M70.567,66.963c-0.439-0.824-0.975-1.615-1.38-2.43c-0.494-0.993-1.227-1.104-1.968-0.888c-0.938,0.274-1.543,1.049-1.19,2.11c0.242,0.728,0.31,1.461,0.191,2.163c-0.204,1.213-0.303,2.371,1.231,2.613c1.293,0.202,2.234-0.648,2.829-1.676c0.24-0.416,0.473-1.056,0.286-1.653"/>
</svg>
