<svg version="1.1" xmlns="http://www.w3.org/2000/svg" width="93px" height="91px" viewBox="0 0 93 91" class="data-free illustration">
	<style>
		path {
	      fill: none;
	      stroke-linecap: round;
	      stroke-linejoin: round;
	      stroke-miterlimit: 10;
	      stroke: #fff;
	    }
	</style>
	<path d="M35.3,25.938c1.248-3.216,3.693-4.835,6.935-5.842c2.234-0.694,4.559-1.637,6.028-3.756c0.983-1.418,2.566-1.889,4.076-1.858c2.318,0.047,4.113-0.983,5.475-2.506c2.819-3.151,6.72-3.267,10.352-4.33c5.229-1.528,10.126,0.278,15.13,1.045c1.336,0.205,2.251,0.975,2.466,2.599c0.209,1.584-0.419,3.592,1.682,4.259c-1.09,2.436-2.654,1.916-4.127,1.003c-1.468-0.91-2.821-1.606-4.586-0.714c-2.207,1.118-4.395-0.15-6.447-0.567c-6.271-1.272-11.992,0.452-14.512,5.937c-1.585,3.452-3.567,6.402-5.844,9.342c-1.364,1.762-1.836,4.088-1.506,6.428c0.306,2.173-0.221,4.148-1.695,5.747c-3.362,3.644-4.335,7.487-1.732,12.051c0.724,1.27,1.076,2.938,0.124,4.556c-0.351,0.594-0.146,1.578-0.041,2.364c0.407,3.065,0.427,3.056-2.654,4.566c-1.288,0.631-2.072,1.356-1.753,3.129c0.416,2.319,0.119,4.552-2.042,6.285c-1.269,1.018-1.344,3.229-3.287,3.782"/>
	<path d="M36.74,74.418c-0.192,1.057-0.838,1.723-1.643,2.44c-1.664,1.483-3.085,3.149-4.195,5.196c-1.581,2.917-5.838,3.691-8.785,1.935c-0.554-0.331-1.09-0.53-1.692-0.708c-4.077-1.2-2.918-0.785-3.547-4.554c-0.405-2.428-0.942-4.691-2.711-6.456c-1.36-1.355-1.85-2.745-0.979-4.589c0.425-0.899,0.368-1.824-0.143-2.896c-1.074-2.251-0.701-4.781-0.45-7.158c0.103-0.977,0.746-1.974,1.979-2.781c2.422-1.585,4.953-3.317,6.331-6.106c0.68-1.375,2.138-1.645,3.365-2.14c5.372-2.165,9.397-5.772,12.275-10.798c0.799-1.395,1.827-2.775,3.317-3.623c3.335-1.899,4.747-5.272,6.478-8.403"/>
	<path d="M0.5,1.938c0.576,2.856,0.153,5.76,0.434,8.645c0.721,7.416,0.54,14.886,0.623,22.317C1.649,41.297,1.7,49.703,1.988,58.096c0.316,9.203,0.06,18.402,0.189,27.602c0.023,1.587-0.073,3.191,0.931,4.576c2.889-0.919,5.794-0.139,8.672-0.264c4.318-0.189,8.636,0.065,12.963-0.181c6.308-0.36,12.641-0.588,18.956-0.468c5.692,0.108,11.366-0.246,17.038-0.415c4.416-0.131,8.8,0.233,13.204,0.172c5.445-0.076,10.873-0.542,16.318-0.563c2.271-0.009,2.454-0.559,2.436-2.857c-0.049-5.852-0.731-11.667-0.936-17.514c-0.203-5.83-0.486-11.689-0.708-17.529c-0.238-6.308-0.233-12.639,0.155-18.957c0.368-5.994,0.242-11.999,0.252-18c0.007-4-0.052-8,0.342-12.48c-4.413,0-8.498,0.059-12.581-0.013c-6.001-0.107-11.999-0.375-18-0.449c-6.559-0.081-13.134,0.247-19.676-0.089C34.415,0.299,27.29,0.648,20.181,0.688C14.698,0.719,9.12,1.025,3.622,1.708L0.5,1.938z"/>
	<path d="M46.58,23.298c-3.305,0.9-6.747,0.358-10.08,0.96"/>
	<path d="M36.26,81.617c1.838-1.847,0.167-3.534-0.24-5.279"/>
</svg>
