<svg version="1.1" xmlns="http://www.w3.org/2000/svg" width="25px" height="25px" viewBox="0 0 25 25" class="icon draw" preserveAspectRatio="xMidYMid meet"><path d="M-253.013,368.016c1.32-0.85,2.942-1.275,4.866-1.275c2.528,0,4.629,0.604,6.302,1.812c1.672,1.208,2.509,2.999,2.509,5.37c0,1.455-0.363,2.679-1.088,3.675c-0.424,0.604-1.239,1.376-2.444,2.315l-1.188,0.923c-0.647,0.503-1.077,1.091-1.289,1.762c-0.134,0.425-0.207,1.085-0.218,1.98h-4.548c0.067-1.891,0.245-3.197,0.535-3.918s1.037-1.552,2.242-2.492l1.222-0.957c0.401-0.302,0.725-0.632,0.97-0.99c0.446-0.615,0.669-1.292,0.669-2.03c0-0.85-0.248-1.625-0.745-2.324c-0.497-0.699-1.404-1.049-2.72-1.049c-1.295,0-2.213,0.431-2.754,1.292c-0.541,0.862-0.812,1.756-0.812,2.685h-4.85C-256.218,371.607-255.105,369.348-253.013,368.016z M-250.227,386.878h5.018v4.85h-5.018V386.878z"/><path d="M10.488,14.81l2.375,2.375l7.352-7.352L17.84,7.458L10.488,14.81z M7.946,17.352l-0.825-0.826l2.651-2.651l-1.781-1.75L2.043,18.01l-1.349,6.324l6.543-1.523l5.735-5.735l-2.375-2.375L7.946,17.352z M5.912,20.412l-2.403,1.093l1.083-2.413l1.212-1.212l0.174,1.156L7.124,19.2L5.912,20.412z M19.136,0.823l-2.589,2.589l5.045,5.045l2.59-2.59L19.136,0.823z M15.295,5.007l-7.704,7.488l1.969,1.594l7.454-7.457L15.295,5.007z"/></svg>