<svg version="1.1" xmlns="http://www.w3.org/2000/svg" width="314.852px" height="145.847px" viewBox="0 0 314.852 145.847" class="embed type illustration">
	<path d="M183.363,11.556c1.947-0.456,3.921-0.186,5.882-0.17c6.879,0.053,13.783,0.517,20.631,0.087c5.294-0.333,10.594-0.345,15.852-0.292c7.127,0.072,14.271-0.825,21.354-0.062c4.734,0.508,9.451,0.249,14.163,0.557c5.138,0.336,10.231-0.459,15.364-0.419c4.077,0.032,8.163,0.051,12.242-0.039c4.651-0.102,9.27-0.848,14.047-0.533c0.02-1.869,0.036-3.469,0.054-5.158c-6.03-0.425-11.907-0.778-17.885-0.469c-6.775,0.352-13.583,0.68-20.397,0.429c-6.154-0.226-12.34-0.517-18.472-0.145c-9.057,0.547-18.096,0.25-27.128,0.012c-5.438-0.142-10.87-0.557-16.317-0.31c-5.364,0.245-10.726,0.551-16.091,0.765c-1.193,0.048-2.394-0.505-3.884,0.004c0.163,1.738-0.423,3.569,0.3,5.229"/>
	<path d="M313.147,142.771c0.129-6.331,0.491-12.667-0.507-18.969c-0.1-0.624-0.012-1.278,0.008-1.918c0.322-10.493,0.098-20.989-0.72-31.44c-0.457-5.852-0.529-11.69-0.801-17.531c-0.187-4.01-0.027-8.015-0.266-12.008c-0.511-8.479-0.582-16.962-0.741-25.449c-0.088-4.645,0.713-9.287-0.016-13.923"/>
	<path d="M288.565,61.147c-3.28-0.034-6.563,0.03-9.837-0.121c-11.38-0.521-22.743,0.143-34.086,0.713c-10.179,0.511-20.327-0.109-30.489,0.064"/>
	<path d="M309.867,21.29c-10.884,0.285-21.772,0.898-32.649,0.751c-8.636-0.116-17.279-0.2-25.919-0.397c-5.518-0.126-11.058-0.507-16.552-0.33c-10.724,0.347-21.458,1.441-32.166,0.647c-6.663-0.494-13.289-0.12-19.926-0.242c-4.951-0.092-9.94-0.279-14.873,0.095c-2.814,0.214-5.608,0.214-8.412,0.29"/>
	<path d="M314.102,143.261c-3.445-0.388-6.904-0.023-10.316,0.222c-4.928,0.355-9.8-0.773-14.635-0.381c-7.21,0.587-14.43-0.294-21.622,0.585c-2.853,0.349-5.775,0.263-8.641,0.32c-10.244,0.203-20.469,0.941-30.728,0.825c-5.672-0.063-11.359,0.203-17.044,0.26c-6.728,0.068-13.428-0.561-20.156-0.542c-4.082,0.011-8.16,0.164-12.241,0.181c-3.627,0.017-17.935,0.861-18.094-0.818c-0.467-4.956-0.259-10.547-0.375-15.508c-0.091-3.873,0.31-8.842,0.057-12.687c-0.285-4.329,0.556-8.642,0.337-12.955c-0.404-8.004-0.558-16.017-1.106-24.018c-0.446-6.546-0.343-13.109-0.215-19.681c0.101-5.114,0.446-10.234,0.308-15.357c-0.194-7.201-0.749-14.377-0.701-21.608c0.031-4.923-0.299-9.918-0.362-14.886c-0.021-1.777,0.458-3.505,0.226-5.516c3.83,0.039,7.352,0.134,10.873,0.1c5.361-0.052,10.723-0.255,16.084-0.283c8.56-0.042,17.135,0.321,25.677-0.063c10.729-0.482,21.448,0.016,32.172-0.227c4.793-0.108,9.599-0.162,14.4-0.203c6.799-0.057,13.597-0.373,20.403-0.238c6.639,0.132,13.309-0.189,19.908,0.357c3.761,0.31,7.549,0.057,11.286,0.677c0.699,0.115,1.152,0.212,1.188,1.001c0.25,5.6,0.133,11.201,0.028,16.801c-0.013,0.642-0.461,1.276-0.707,1.913"/>
	<path d="M291.886,133.186c0.682-3.168,0.204-6.399,0.491-9.602c0.205-2.336-1.779-3.821-4.183-3.345c-2.897,0.576-5.773,0.348-8.654,0.302c-2.266-0.037-4.442,0.676-6.729,0.495c-1.387-0.108-2.034,0.727-1.991,2.329c0.101,3.597,0.065,7.205-0.351,10.795c1.323,0.333,2.604,0.1,3.886,0.108c5.796,0.037,11.516-0.94,17.291-1.085"/>
	<path d="M237.996,122.538c-0.04,3.76-0.113,7.52-0.099,11.279c0.004,1.113-0.753,1.534-1.466,1.381c-5.942-1.283-11.837,0.802-17.781,0.192c-1.189-0.123-2.523,0.574-3.843,0.056c-1.044-4.603-0.016-9.231-0.003-13.547c5.684-0.24,11.188,0.324,16.714,0.318c2.246-0.001,4.556,0.934,6.725-0.397"/>
	<path d="M265.47,134.588c-0.159-0.082-0.331,0.212-0.481,0.204c-6.729-0.372-13.439,0.542-20.165,0.289c-0.32-0.012-0.638-0.158-1.19-0.303c-0.048-4.097,0.672-8.265,0.118-12.478c7.195-1.093,14.405-0.466,21.52-0.158c1.839,3.998,0.162,8.131,0.441,12.207"/>
	<path d="M208.998,38.866c-3.276,0.429-6.566,0.035-9.866,0.249c-7.274,0.469-14.581,0.627-21.872,0.6c-3.358-0.013-6.728,0.242-10.332,0.157c0.074-1.924,0.384-3.643,0.138-5.279c-0.256-1.708,0.62-1.951,1.832-2.098c3.518-0.427,7.043,0.094,10.588-0.207c2.927-0.249,5.932-0.319,8.881-0.181c4.491,0.209,8.968-0.517,13.453-0.026c1.666,0.181,3.357,0.208,5.034,0.194c1.003-0.01,1.713,0.169,1.874,1.296L208.998,38.866z"/>
	<path d="M288.633,54.668c-0.24,0.078-0.482,0.228-0.721,0.222c-9.934-0.237-19.853,0.576-29.769,0.535c-7.597-0.031-15.207,0.138-22.798-0.16c-7.215-0.285-14.399,0.617-21.604,0.294"/>
	<path d="M188.617,70.895c-5.683,0.006-11.353,0.629-17.046,0.344c-0.803-0.04-1.925-0.245-2.408,0.891"/>
	<path d="M203.095,18.004c-4.504,0.763-8.941-0.809-13.437-0.382"/>
	<path d="M185.172,79.018c-2.642,0.133-5.282,0.3-7.926,0.388c-2.799,0.093-5.601,0.11-8.4,0.16"/>
	<path d="M187.468,88.883c-2.95,0.694-5.933-0.002-8.882-0.007c-2.926-0.005-5.909-0.35-8.874-0.42"/>
	<path d="M288.345,36.664c-3.295-0.815-6.562,0.181-9.845,0.129c-0.88-0.014-1.79,0.153-2.635-0.26"/>
	<path d="M260.23,16.927c-4.149,0.588-8.32,0.366-12.485,0.348"/>
	<path d="M177.656,17.736c-3.066,0.642-6.073-0.34-9.116-0.332c-0.805,0.002-1.629-0.166-2.403,0.21"/>
	<path d="M178.153,61.663c-1.917,0.869-3.999,0.657-6.011,0.888c-1.193,0.136-2.422-0.25-3.601,0.212"/>
	<path d="M288.547,17.464c-4.981-0.079-9.978-0.383-14.891,0.804"/>
	<path d="M249.706,36.256c-2.81-0.044-5.611,0.101-8.404,0.392"/>
	<path d="M231.903,17.348c-3.045-0.307-6.073,0.496-9.121,0.147c-1.116-0.127-2.271,0.203-3.358-0.278"/>
	<path d="M184.955,54.055c-3.582,0.679-7.173,0.772-10.811,0.41c-1.652-0.164-3.372-0.34-5.036,0.143"/>
	<path d="M267.71,35.966c-2.423-0.022-4.856-0.146-7.208,0.644"/>
	<path d="M234.581,36.577c-2.642-0.032-5.285-0.019-7.917-0.323"/>
	<path stroke-width="2" d="M255.127,90.941c-1.556,0.375-2.709-0.697-3.944-1.247c-6.373-2.833-13.023-5.012-19.332-7.939c-6.977-3.239-14.326-5.21-21.641-7.296c-7.852-2.24-15.607-4.862-23.616-6.537c-4.24-0.887-8.496-1.694-12.751-2.512c-2.525-0.487-4.955-1.412-7.537-1.641c0,0-29.19-5.183-33.688-5.474"/>
	<path stroke-width="2" d="M252.102,85.983c0.856,1.483,2.764,2.32,3.061,4.021l0.328,1.949c-2.17,1.641-4.745,1.063-7.169,1.309"/>
	<path d="M63.308,6.532c-3.917,0.383-7.85,0.14-11.778,0.358c-6.549,0.364-21.861-0.487-23.029-0.539C20.659,6.003,12.818,6.75,4.973,6.313c-3.405-0.19-3.699,0.441-3.968,3.944c-0.607,7.925,0.064,15.845,0.032,23.767c-0.021,5.031,0.218,10.121,0.912,15.155c0.338,2.457-0.225,4.941-0.209,7.434c0.043,6.458,1.156,12.828,1.401,19.245c0.187,4.876,1.143,9.74,0.469,14.651c-0.21,1.53,0.764,1.939,2.098,1.729c4.076-0.644,8.154-0.4,12.25-0.205c4.874,0.231,9.756,0.442,14.641,0.169c3.041-0.17,6.086,0.235,9.11,0.364c4.647,0.197,9.286,0.033,13.924,0.109c1.334,0.022,2.735-0.014,4.082,0.005c6.575,0.084,13.141-0.335,19.695-0.617c7.773-0.335,15.539-0.073,23.298-0.335c4.406-0.148,8.807-0.549,13.223-0.569c1.296-0.005,1.738-0.683,1.735-1.884c-0.006-2.011-0.061-4.001-0.266-6.018c-0.313-3.096,0.027-6.225-0.251-9.368c-0.606-6.862,0.113-13.769-0.11-20.636c-0.385-11.929,0.207-23.873-0.543-35.783c-0.252-4.013-0.436-8.005-0.345-12.031c-3.281-0.843-6.584-0.006-9.836,0.15c-2.379,0.114-4.874,0.576-7.227,0.526c-6.091-0.126-12.163,0.333-18.249,0.17C75.96,6.154,71.073,6.38,66.193,6.316L63.308,6.532z"/>
	<path d="M71.67,75.403c0.883,3.369,4.044,2.923,6.399,3.728c2.618,0.894,5.463,0.526,8.151,1.571c2.113,0.822,3.574-1.085,4.83-2.654c2.766-3.457,4.239-7.561,5.821-11.614c0.671-1.718-0.259-2.639-1.622-3.137c-3.088-1.13-6.057-2.592-9.268-3.383c-1.904-0.469-3.5-1.703-5.461-2.099c-1.436-0.29-2.231-0.04-2.702,1.411c-1.409,4.352-3.179,8.568-5.385,12.571c-0.618,1.123-0.159,2.333-0.757,3.366"/>
	<path d="M44.367,92.005c-0.371-2.666,0.834-5.24,0.445-7.912c-0.23-1.592,0.693-3.177-0.103-4.815c-1.003-2.063-2.892-2.285-4.765-2.483c-2.233-0.238-4.52-0.497-6.705-0.518c-3.101-0.029-6.045,1.237-7.571,4.452c-0.582,1.226-1.428,2.329-1.967,3.569c-0.573,1.323-1.47,2.216-2.739,2.802c-1.97,0.909-3.061,2.598-3.952,4.462"/>
	<path d="M116.656,81.329c-1.689,0.337-3.326,0.169-5.049-0.043c-3.49-0.432-6.909,0.444-10.11,1.847c-5.734,2.51-11.652,3.558-17.83,2.38c-3.041-0.579-6.082-0.234-9.118-0.417c-3.094-0.187-5.547-1.154-6.892-4.255c-0.945-2.182-2.648-3.668-5.146-3.986"/>
	<path d="M53.831,30.303c-1.251,3.093-2.393,6.251-4.323,9.004c-1.568,2.237-3.644,3.788-6.017,5.292c-3.289,2.085-6.75,4.257-8.769,8c-1.159,2.148-1.16,4.343-0.898,6.47c0.093,0.756-0.263,1.483,0.028,2.185"/>
	<path d="M108.712,14.869c0.105,4.966-0.356,9.782-4.428,13.317c-3.164,2.746-4.705,6.367-6.03,10.18c-0.451,1.295-0.621,2.528-0.308,3.842"/>
	<path d="M50.869,91.208c0.906-3.538,1.27-7.176,1.925-10.759c0.345-1.892-0.832-3.11-2.269-4.141c-2.38-1.707-4.96-2.94-7.837-3.555c-4.753-1.018-7.542-4.356-9.578-8.426c-0.401-0.801,0.071-1.93,0.496-2.839"/>
	<path d="M42.441,44.183c-1.498-1.701-3.235-3.174-4.456-5.138c-1.384-2.228-3.622-3.038-6.136-3.302c-1.639-0.171-3.028-0.69-4.066-2.221c-1.713-2.525-4.221-3.666-7.32-3.332"/>
	<path d="M78.782,21.324c-0.687,1.983-1.377,3.967-2.131,6.142c1.269,1.409,3.024,1.683,4.816,1.553c0.653-0.047,2.547-5.439,2.319-6.13c-0.363-1.094-2.735-1.871-4.764-1.559"/>
	<path d="M50.34,45.1c-2.226,1.639-3.832,3.699-4.754,6.353c-0.557,1.6-2.029,2.583-3.169,3.785c-0.971,1.022-1.968,2.025-2.279,3.529c-0.737,3.558-2.103,4.197-5.577,2.755c-0.285-0.117-0.626-0.399-0.956-0.034"/>
	<path d="M78.182,6.903c-1.244,2.989-2.249,3.542-5.607,3.526c-0.577-0.003-1.319,0.448-1.964,0.811c-5.939,3.349-10.482,7.973-13.578,14.08c-0.79,1.559-2.109,2.849-3.185,4.263"/>
	<path d="M92.734,20.231c-0.96,0.495-1.479,1.604-1.415,2.356c0.22,2.634-1.121,4.017-3.04,5.531c-2.112,1.667-3.037,4.489-5.458,6.086c-2.163,1.428-2.978,3.946-3.827,6.416c0.843,1.371,1.769,2.728,3.047,3.838c2.629,2.286,7.428,2.841,10.273,0.926c1.054-0.709,2.206-1.221,3.25-1.973c2.139-1.543,4.753-1.023,7.17-0.788c1.649,0.16,3.466,2.43,2.962,3.838c-1.7,4.75,0.382,8.829,1.908,13.032c0.919,2.529,1.936,5.026,2.202,7.739"/>
	<path d="M78.783,40.529c-0.24-0.006-0.575,0.09-0.706-0.032c-2.88-2.706-6.61-3.162-10.205-4.185c-2.989-0.85-6.047-1.821-8.613-3.899c-1.536-1.243-3.523-1.902-5.416-2.59"/>
	<path d="M57.92,10.719c0.076,0.162,0.012,0.396-0.254,0.463c-5.715,1.412-11.401,3.327-17.314,0.808c-0.548-0.233-1.35-0.264-1.894-0.044c-4.075,1.648-8.305,1.406-12.522,1.063c-1.72-0.14-2.983,0.478-4.124,1.609"/>
	<path d="M70.93,37.692c-0.274,1.108-1.287,1.596-1.983,2.347c-1.979,2.132-2.325,4.536-1.953,7.412c0.377,2.912,0.519,6.3-1.687,8.463c-1.39,1.361-3.291,2.403-4.774,3.841c-0.61,0.592-0.911,1.564-1.957,1.636"/>
	<path d="M100.125,70.351c-0.864,1.485-1.136,3.283-2.505,4.507c-2.189,1.954-1.778,4.625-1.866,7.148c-0.031,0.88-0.045,1.759-0.066,2.639"/>
	<path stroke-width="2" d="M12.663,73.424c0.498-2.069,0.358-4.147,0.167-6.24c-0.299-3.277-0.135-6.563,0.013-9.841c0.12-2.658-0.009-5.294-0.301-7.93"/>
	<path stroke-width="2" d="M12.638,45.574c0.877,0.52,2.109,0.673,1.89,2.21c-0.139,0.979-0.852,0.983-1.495,1.155c-1.278,0.34-1.675-0.619-2.238-1.606c1.668-1.35,1.707-3.034,1.557-5.138c-0.295-4.134,0.242-8.312-0.043-12.474c-0.032-0.484-0.131-0.964-0.199-1.445"/>
	<path d="M47.179,56.305c0.335,0.222,0.458,0.838,0.937,0.727c1.709-0.401,1.95-2.04,2.426-3.305c0.413-1.092-0.323-1.869-1.682-1.966
	c-0.68,1.371-1.606,2.658-1.675,4.304"/>
	<path stroke-width="2" d="M17.801,80.886c-2.723,0.096-5.433,0.573-8.169,0.276"/>
	<path d="M73.913,52.892c-1.555-2.377-3.871-3.778-6.358-4.96"/>
	<path d="M48.96,23.459c0.815-0.599,1.6,0.013,2.396,0.068c1.431-3.844,1.254-4.265-2.245-4.899c0.142,1.571-2.803,2.727-0.385,4.584"/>
	<path stroke-width="2" d="M11.986,21.508c-0.425-2.076-0.687-4.115-0.139-6.258c0.329-1.284,0.123-2.705,0.157-4.065"/>
	<path stroke-width="2" d="M15.483,16.074c-2.54,0.727-5.122,0.321-7.69,0.288"/>
	<path d="M47.268,33.5c-0.352-0.845-1.34-0.941-1.853-1.514c-1.354-1.517-2.285-1.009-3.18,0.333c0.365,1.724,1.076,3.115,2.566,4.067
	c1.45-0.323,1.692-1.738,2.461-2.646"/>
</svg>
