<svg xmlns="http://www.w3.org/2000/svg" version="1.1" width="382.129px" height="227.463px" viewBox="0 0 382.129 227.463" preserveAspectRatio="xMidYMid meet" class="icon graph"><path d="M 44.803,203.847 24.659,181.616 119.387,95.782 246.782,130.166 335.958,25.029 358.837,44.434 257.347,164.09 127.389,129.014 z M 382.128,34.731 c 0,19.182 -15.549,34.73 -34.73,34.73 -19.181,0 -34.731,-15.548 -34.731,-34.73 0,-19.182 15.55,-34.731 34.73,-34.731 19.182,0 34.731,15.549 34.731,34.731 m -95.333,103.834 c 0,19.182 -15.549,34.729 -34.73,34.729 -19.181,0 -34.73,-15.548 -34.73,-34.729 0,-19.181 15.549,-34.731 34.73,-34.731 19.181,0 34.73,15.55 34.73,34.731 M 69.462,192.732 c 0,19.182 -15.55,34.729 -34.731,34.729 C 15.55,227.461 0,211.914 0,192.732 0,173.55 15.55,158.001 34.731,158.001 c 19.181,0 34.731,15.55 34.731,34.731 m 88.657,-80.335 c 0,19.182 -15.55,34.73 -34.731,34.73 -19.181,0 -34.731,-15.549 -34.731,-34.73 0,-19.182 15.55,-34.731 34.731,-34.731 19.181,0 34.731,15.549 34.731,34.731" /></svg>