<svg version="1.1" xmlns="http://www.w3.org/2000/svg" width="48.618px" height="68.048px" viewBox="0 0 48.618 68.048">
	<g fill-rule="evenodd" clip-rule="evenodd">
		<path d="M29.665,36.869c0-0.794,0-0.794,0.453-1.556c1.917-1.584,3.918-0.551,4.938,0.821c2.44,3.28,3.329,5.362,5.307,8.916c2.675,4.812,5.153,9.73,7.834,14.539c0.625,1.121,0.549,1.962-0.187,2.822c-1.825,2.138-3.814,4.093-6.507,5.126c-1.358,0.521-2.71,0.771-4.159,0.122c-3.13-1.402-6.334-2.643-9.449-4.078c-2.753-1.268-5.417-2.727-8.137-4.067c-1.401-0.69-2.549-1.644-3.346-2.984c-0.906-1.524-0.208-2.886,1.566-3.036c1.738-0.146,3.263,0.657,4.836,1.208c0.598,0.209,1.152,0.541,1.835,0.869c0.23-0.758-0.337-1.054-0.666-1.399c-2.588-2.718-5.183-5.431-7.805-8.116c-1.682-1.725-2.994-3.738-4.463-5.627c-1.182-1.521-1.754-3.444-2.045-5.241c-0.753-4.642-1.959-9.228-2.078-13.961c-0.017-0.718-0.349-0.919-0.93-1.137c-5.758-2.164-6.891-6.776-6.628-11.247c0.192-3.258,2.298-5.467,4.81-7.374c2.042-1.549,4.304-1.716,6.604-1.217c2.515,0.544,5.308,2.529,6.044,5.032c0.698,2.379,0.911,4.587,1,7.083c0.122,3.41-2.519,5.646-5.126,7.45c-0.779,0.54-1.341,0.975-1.401,1.997c-0.22,3.826-0.545,7.646-0.756,11.472c-0.095,1.705-0.014,1.71,1.628,1.968c1.334,0.209,2.344,1.002,3.241,1.914c1.008,1.029,3.795,4.464,5.193,5.563c-0.417-1.477-0.552-2.641,0.485-3.707c1.274-1.31,2.338-0.139,3.577,0.17c0.588-0.952-0.147-1.97,1.117-2.619C27.703,35.932,28.447,36.714,29.665,36.869 M29.845,59.031c-0.912,0.366-1.581-0.155-2.269-0.513c-1.417-0.737-2.794-1.555-4.236-2.236c-1.513-0.716-3.064-1.377-4.779-1.451c-0.4-0.018-0.824,0.008-1.055,0.404c-0.285,0.49-0.078,0.897,0.259,1.294c0.624,0.737,1.286,1.423,2.155,1.875c5.452,2.843,11.023,5.432,16.679,7.838c1.626,0.691,3.206,0.572,4.868-0.106c2.172-0.887,3.54-2.682,5.191-4.161c0.799-0.717,0.552-1.622,0.15-2.432c-0.709-1.429-1.511-2.812-2.231-4.236c-3.399-6.699-6.009-11.744-10.119-18.035c-0.971-1.486-1.882-1.999-2.965-1.583c-0.22,0.084-0.856,0.681-0.833,0.916c0.125,1.763,0.626,2.147,1.455,3.23c1.261,1.648,2.344,3.426,3.509,5.144c0.245,0.362,0.356,0.783-0.042,1.053c-0.387,0.261-0.756,0.012-1.019-0.325c-0.243-0.316-0.468-0.648-0.699-0.973c-1.812-2.534-2.551-3.578-4.367-6.107c-0.606-0.842-0.559-0.696-1.576-1.115c-0.704-0.289-1.546,0.243-1.47,1.052c0.141,1.491,0.011,1.721,1,2.792c2.014,2.18,2.667,3.208,4.549,5.383c0.258,0.299,0.478,0.635,0.672,0.978c0.13,0.229,0.027,0.473-0.161,0.646c-0.189,0.177-0.459,0.226-0.64,0.057c-0.408-0.376-0.809-0.773-1.148-1.211c-1.323-1.703-2.78-3.183-4.188-4.812c-1.401-1.624-0.667-0.958-2.35-2.366c-0.456-0.382-1.021-0.43-1.535,0.036c-0.498,0.452-0.154,2.315,0.412,3.065c1.777,2.352,2.609,3.118,4.423,5.443c0.882,1.131,0.722,0.798,1.534,1.98c0.191,0.276,0.147,0.657-0.175,0.82c-0.164,0.084-0.5,0.013-0.657-0.114c-0.369-0.299-0.73-0.636-1.004-1.021c-1.433-2.034-2.226-2.262-3.904-4.079c-2.601-2.816-5.153-5.683-8.001-8.26c-1.434-1.297-2.603-1.693-3.106-1.025c-0.877,1.164-0.025,2.176,0.587,3.031c1.86,2.596,3.722,5.244,6.097,7.374c3.752,3.366,6.771,7.441,10.618,10.7C29.708,58.175,29.93,58.439,29.845,59.031 M17.159,11.97c-0.055-0.794-0.239-4.366-1.063-6.375c-1.17-2.864-6.238-5.164-8.998-4.098C3.409,2.921,0.993,6.79,1.304,10.771c0.347,4.412,2.795,7.405,6.926,8.334C13.11,20.202,17.437,15.765,17.159,11.97 M9.818,27.813c0.174,0.008,0.347,0.017,0.521,0.024c0.135-1.979,0.283-3.959,0.401-5.94c0.036-0.592-0.083-1.125-0.852-1.168c-0.752-0.042-0.975,0.391-0.957,1.04C8.992,23.824,9.271,25.841,9.818,27.813"/>
	</g>
</svg>
