<svg version="1.1" xmlns="http://www.w3.org/2000/svg" width="110.66px" height="70px" viewBox="0 0 110.66 70">

  <g fill-rule="evenodd" clip-rule="evenodd">
    <path d="M29.665,36.869c0-0.794,0-0.794,0.453-1.556c1.917-1.584,3.918-0.551,4.938,0.821c2.44,3.28,3.329,5.362,5.307,8.916c2.675,4.812,5.153,9.73,7.834,14.539c0.625,1.121,0.549,1.962-0.187,2.822c-1.825,2.138-3.814,4.093-6.507,5.126c-1.358,0.521-2.71,0.771-4.159,0.122c-3.13-1.402-6.334-2.643-9.449-4.078c-2.753-1.268-5.417-2.727-8.137-4.067c-1.401-0.69-2.549-1.644-3.346-2.984c-0.906-1.524-0.208-2.886,1.566-3.036c1.738-0.146,3.263,0.657,4.836,1.208c0.598,0.209,1.152,0.541,1.835,0.869c0.23-0.758-0.337-1.054-0.666-1.399c-2.588-2.718-5.183-5.431-7.805-8.116c-1.682-1.725-2.994-3.738-4.463-5.627c-1.182-1.521-1.754-3.444-2.045-5.241c-0.753-4.642-1.959-9.228-2.078-13.961c-0.017-0.718-0.349-0.919-0.93-1.137c-5.758-2.164-6.891-6.776-6.628-11.247c0.192-3.258,2.298-5.467,4.81-7.374c2.042-1.549,4.304-1.716,6.604-1.217c2.515,0.544,5.308,2.529,6.044,5.032c0.698,2.379,0.911,4.587,1,7.083c0.122,3.41-2.519,5.646-5.126,7.45c-0.779,0.54-1.341,0.975-1.401,1.997c-0.22,3.826-0.545,7.646-0.756,11.472c-0.095,1.705-0.014,1.71,1.628,1.968c1.334,0.209,2.344,1.002,3.241,1.914c1.008,1.029,3.795,4.464,5.193,5.563c-0.417-1.477-0.552-2.641,0.485-3.707c1.274-1.31,2.338-0.139,3.577,0.17c0.588-0.952-0.147-1.97,1.117-2.619C27.703,35.932,28.447,36.714,29.665,36.869 M29.845,59.031c-0.912,0.366-1.581-0.155-2.269-0.513c-1.417-0.737-2.794-1.555-4.236-2.236c-1.513-0.716-3.064-1.377-4.779-1.451c-0.4-0.018-0.824,0.008-1.055,0.404c-0.285,0.49-0.078,0.897,0.259,1.294c0.624,0.737,1.286,1.423,2.155,1.875c5.452,2.843,11.023,5.432,16.679,7.838c1.626,0.691,3.206,0.572,4.868-0.106c2.172-0.887,3.54-2.682,5.191-4.161c0.799-0.717,0.552-1.622,0.15-2.432c-0.709-1.429-1.511-2.812-2.231-4.236c-3.399-6.699-6.009-11.744-10.119-18.035c-0.971-1.486-1.882-1.999-2.965-1.583c-0.22,0.084-0.856,0.681-0.833,0.916c0.125,1.763,0.626,2.147,1.455,3.23c1.261,1.648,2.344,3.426,3.509,5.144c0.245,0.362,0.356,0.783-0.042,1.053c-0.387,0.261-0.756,0.012-1.019-0.325c-0.243-0.316-0.468-0.648-0.699-0.973c-1.812-2.534-2.551-3.578-4.367-6.107c-0.606-0.842-0.559-0.696-1.576-1.115c-0.704-0.289-1.546,0.243-1.47,1.052c0.141,1.491,0.011,1.721,1,2.792c2.014,2.18,2.667,3.208,4.549,5.383c0.258,0.299,0.478,0.635,0.672,0.978c0.13,0.229,0.027,0.473-0.161,0.646c-0.189,0.177-0.459,0.226-0.64,0.057c-0.408-0.376-0.809-0.773-1.148-1.211c-1.323-1.703-2.78-3.183-4.188-4.812c-1.401-1.624-0.667-0.958-2.35-2.366c-0.456-0.382-1.021-0.43-1.535,0.036c-0.498,0.452-0.154,2.315,0.412,3.065c1.777,2.352,2.609,3.118,4.423,5.443c0.882,1.131,0.722,0.798,1.534,1.98c0.191,0.276,0.147,0.657-0.175,0.82c-0.164,0.084-0.5,0.013-0.657-0.114c-0.369-0.299-0.73-0.636-1.004-1.021c-1.433-2.034-2.226-2.262-3.904-4.079c-2.601-2.816-5.153-5.683-8.001-8.26c-1.434-1.297-2.603-1.693-3.106-1.025c-0.877,1.164-0.025,2.176,0.587,3.031c1.86,2.596,3.722,5.244,6.097,7.374c3.752,3.366,6.771,7.441,10.618,10.7C29.708,58.175,29.93,58.439,29.845,59.031 M17.159,11.97c-0.055-0.794-0.239-4.366-1.063-6.375c-1.17-2.864-6.238-5.164-8.998-4.098C3.409,2.921,0.993,6.79,1.304,10.771c0.347,4.412,2.795,7.405,6.926,8.334C13.11,20.202,17.437,15.765,17.159,11.97 M9.818,27.813c0.174,0.008,0.347,0.017,0.521,0.024c0.135-1.979,0.283-3.959,0.401-5.94c0.036-0.592-0.083-1.125-0.852-1.168c-0.752-0.042-0.975,0.391-0.957,1.04C8.992,23.824,9.271,25.841,9.818,27.813"/>
  </g>
   <g fill-rule="evenodd" clip-rule="evenodd" transform="translate(26, 0)">
    <path d="M33.611,25.087c-3.092-0.08-5.993,0.094-8.877,0.405c-4.486,0.486-8.994,0.245-13.476,0.53c-2.924,0.188-5.864,0.251-8.777,0.609c-0.749,0.092-0.886-0.141-0.863-0.829c0.145-4.362-0.291-8.672-1.179-12.943C-0.29,9.363-0.013,5.858,0.558,2.383c0.21-1.275,1.585-1.254,2.461-1.268c2.635-0.042,5.262-0.248,7.893-0.264c1.357-0.008,2.689-0.253,4.058-0.21c5.4,0.17,10.804,0.191,16.204,0.358c6.923,0.214,13.808-0.452,20.712-0.724c4.941-0.196,9.898,0.039,14.85,0.014c2.434-0.013,4.865-0.178,7.297-0.28c2.252-0.094,4.429,0.56,6.66,0.69c0.575,0.033,1.005,0.485,0.964,1.153c-0.339,5.533,0.089,11.069-0.096,16.604c-0.056,1.692,0.206,3.401,0.001,5.102c-0.042,0.348-0.109,0.744-0.308,1.012c-0.294,0.396-0.801,0.638-0.896-0.121c-0.092-0.741-0.516-0.737-1.063-0.801c-1.624-0.188-3.146,0.434-4.74,0.538c-5.991,0.392-11.965,1.058-17.958,1.343c-4.175,0.199-8.365,0.189-12.548,0.32c-0.982,0.03-1.809,0.28-2.517,0.88c-3.933,3.332-8.038,6.455-11.825,9.967c-2.738,2.538-5.585,4.959-8.267,7.562c-0.421,0.407-0.978,0.682-1.494,0.979c-0.344,0.197-0.707,0.169-0.953-0.19c-0.248-0.362-0.061-0.619,0.172-0.947c4.499-6.304,9.096-12.53,14.128-18.424C33.391,25.56,33.44,25.407,33.611,25.087 M23.727,40.495c0.153-0.115,0.309-0.229,0.458-0.349c2.111-1.704,4.044-3.605,6.052-5.424c3.783-3.426,7.844-6.526,11.783-9.768c0.281-0.23,0.574-0.541,0.941-0.433c1.599,0.476,3.168-0.091,4.752-0.075c5.591,0.059,11.163-0.287,16.736-0.691c4.928-0.359,9.851-0.722,14.757-1.309c1.034-0.124,1.423-0.458,1.363-1.549c-0.097-1.826-0.193-3.682,0.017-5.49c0.491-4.226-0.174-8.426-0.088-12.638c0.01-0.44-0.054-0.839-0.654-0.968c-3.297-0.704-6.694-1.053-9.985-0.765c-4.784,0.418-9.549,0.125-14.31,0.148C51.055,1.205,46.586,1.608,42.1,1.681c-3.127,0.049-6.272,0.321-9.414,0.305c-3.068-0.014-6.146,0.022-9.2-0.214C20.743,1.56,18.008,1.703,15.27,1.61c-1.903-0.064-3.823,0.015-5.72,0.195C7.184,2.029,4.76,1.839,2.469,2.696C1.993,2.874,1.626,3.058,1.536,3.635C1.154,6.052,1.01,8.485,1.41,10.897c0.742,4.476,1.783,8.912,1.635,13.492c-0.026,0.801,0.251,0.968,1.051,0.95c4.745-0.104,9.462-0.619,14.23-0.589c5.524,0.035,11.052-0.673,16.578-1.063c0.399-0.028,0.838-0.161,1.066,0.287c0.214,0.421-0.043,0.751-0.331,1.058c-2.699,2.873-5.239,5.885-7.611,9.03C26.48,36.114,24.723,38.024,23.727,40.495"/>
    <path d="M38.877,12.34c0.632-0.607,1.211-1.265,2.089-1.549c1.275-0.412,2.463,0.33,2.577,1.653c0.182,2.094-1.021,3.931-3.03,4.626c-1.328,0.459-2.262-0.031-2.501-1.528c-0.158-0.974-0.537-0.821-1.013-0.382c-0.734,0.677-1.938,0.651-2.406,1.767c-0.166,0.395-1.296-0.239-1.247-0.83c0.247-3.057,0.099-6.158,0.963-9.15c0.033-0.115,0.062-0.232,0.108-0.342c0.131-0.308,0.298-0.589,0.705-0.479c0.408,0.111,0.465,0.477,0.36,0.769c-0.32,0.89-0.197,1.819-0.326,2.722c-0.071,0.497,0.007,0.684,0.591,0.719C37.462,10.438,38.009,10.829,38.877,12.34 M42.577,13.146c-0.017-1.098-0.637-1.472-1.437-0.909c-1.054,0.741-1.675,1.811-1.699,3.135c-0.015,0.864,0.41,1.167,1.211,0.731C41.885,15.433,42.379,14.297,42.577,13.146 M35.706,11.465c-0.538-0.066-0.81,0.169-0.815,0.722c-0.003,0.357-0.069,0.718-0.027,1.067c0.072,0.583-0.673,1.336-0.106,1.639c0.654,0.35,1.211-0.498,1.804-0.831c0.624-0.349,1.122-0.927,0.917-1.623C37.252,11.672,36.43,11.569,35.706,11.465"/>
    <path d="M71.832,12.674c-0.936,1.308-1.609,2.3-2.955,2.421c-1.281,0.114-1.771-0.327-1.769-1.627c0.007-2.459,1.842-4.629,4.283-5.089c0.23-0.042,0.444-0.165,0.664-0.251c0.754-0.292,1.311,0.018,1.192,0.767c-0.449,2.847,0.455,5.63,0.289,8.458c-0.097,1.635-0.838,2.617-2.376,3.018c-0.844,0.22-2.98-0.709-3.463-1.535c-0.131-0.223-0.35-0.509-0.117-0.768c0.259-0.287,0.584-0.174,0.87,0.006c0.367,0.232,0.707,0.521,1.096,0.708c1.429,0.688,2.379,0.193,2.671-1.354C72.506,15.913,72.007,14.485,71.832,12.674 M71.611,10.437c-0.048-0.661-0.397-1.062-0.987-0.602c-1.167,0.911-1.843,2.19-2.117,3.636c-0.115,0.598,0.205,0.92,0.862,0.62C70.261,13.682,71.657,11.414,71.611,10.437"/>
    <path d="M14.478,11.362c0.149,3.093-0.97,6.218-0.961,9.458c0.002,0.267-0.055,0.514-0.337,0.535c-0.389,0.03-0.597-0.266-0.601-0.605c-0.012-0.913-0.324-1.8-0.157-2.734c0.176-0.98,0.298-1.976,0.36-2.97c0.026-0.416,0.547-1.078-0.322-1.239c-0.753-0.14-1.681,0.582-1.674,1.314c0.009,1.196,0.109,2.39,0.168,3.586c0.017,0.362,0.338,0.85-0.266,0.995c-0.64,0.153-0.72-0.452-0.79-0.824c-0.212-1.13-0.383-2.277-0.319-3.433c0.04-0.719-0.05-1.21-0.961-0.941c-0.35,0.104-0.822,0.155-0.869-0.314c-0.044-0.441,0.417-0.535,0.785-0.519c0.972,0.04,1.235-0.474,1.155-1.345c-0.116-1.257,0.23-2.454,0.547-3.651c0.107-0.406,0.31-0.826,0.787-0.734c0.538,0.103,0.433,0.58,0.339,0.976c-0.248,1.051-0.464,2.11-0.481,3.192c-0.007,0.419-0.237,1.083,0.573,1.023c0.668-0.05,1.542,0.127,1.622-0.949c0.065-0.875,0.106-1.752,0.142-2.629c0.021-0.516,0.202-0.837,0.781-0.824c0.665,0.015,0.642,0.453,0.604,0.919C14.561,10.167,14.527,10.684,14.478,11.362"/>
    <path d="M66.586,14.946c-1.191,0.613-2.227,1.009-3.321,1.195c-1.013,0.173-1.738-0.261-1.927-1.31c-0.38-2.116,0.26-3.946,1.739-5.465c0.677-0.695,2.009-0.552,2.689,0.195c0.702,0.768,0.598,2.142-0.264,2.914c-0.622,0.558-1.345,0.97-2.121,1.299c-0.428,0.183-0.959,0.405-0.686,1.046c0.232,0.546,0.686,0.481,1.209,0.43C64.715,15.17,65.436,14.508,66.586,14.946M62.777,12.875c0.858-0.325,1.51-0.708,2.038-1.239c0.361-0.363,0.415-0.845,0.032-1.28c-0.458-0.521-0.834-0.079-1.088,0.192C63.197,11.146,62.77,11.847,62.777,12.875"/>
    <path d="M54.057,19.462c1.463,1.315,2.243,1.153,2.908-0.598c0.782-2.055,0.575-4.209,0.415-6.337c-0.058-0.749-0.286-1.484-0.4-2.23c-0.059-0.393-0.084-0.861,0.448-0.942c0.472-0.072,0.843,0.101,0.927,0.678c0.449,3.13,0.824,6.256-0.206,9.351c-0.259,0.781-0.683,1.423-1.476,1.788C55.265,21.82,54.22,21.209,54.057,19.462"/>

    <path d="M19.171,11.637c0.833-0.029,1.695,0.019,1.915,1.01c0.196,0.88-0.299,1.513-1.082,1.927c-0.559,0.295-1.103,0.603-1.709,0.818c-0.51,0.182-1.229,0.314-0.913,1.22c0.266,0.763,0.769,0.929,1.495,0.825c0.384-0.054,0.985-0.606,1.118,0.007c0.138,0.631-0.691,0.498-1.083,0.596c-2.197,0.547-3.586-0.812-3.227-3.099C16,12.936,17.293,11.711,19.171,11.637 M17.814,14.681c0.779-0.135,1.454-0.527,2.017-1.115c0.164-0.17,0.345-0.381,0.216-0.629c-0.141-0.273-0.415-0.341-0.717-0.296c-1.022,0.152-1.567,0.862-1.943,1.722C17.246,14.687,17.489,14.771,17.814,14.681"/>
    <path d="M46.847,11.314c1.294-0.415,2.519-0.728,3.807-0.667c0.292,0.014,0.647,0.029,0.676,0.323c0.037,0.391-0.337,0.549-0.671,0.486c-1.123-0.209-1.957,0.513-2.86,0.911c-1.374,0.606-1.67,1.489-1.408,3.219c0.056,0.37,0.417,0.886-0.314,1.047c-0.672,0.149-0.83-0.314-0.938-0.802c-0.424-1.922,0.026-3.803,0.308-5.687c0.071-0.478,0.474-0.633,0.903-0.602c0.552,0.04,0.562,0.464,0.541,0.884C46.874,10.696,46.863,10.967,46.847,11.314"/>
    <path d="M28.955,13.019c-1.214,0.653-2.565,0.821-3.8,1.375c-0.897,0.402-1.493,0.823-1.374,1.913c0.065,0.587-0.018,1.191-0.029,1.787c-0.008,0.402,0.034,0.827-0.551,0.863c-0.601,0.037-0.781-0.439-0.806-0.839c-0.074-1.188-0.127-2.39-0.03-3.573c0.048-0.595,0.021-1.186,0.067-1.778c0.043-0.552,0.283-0.943,0.85-0.959c0.537-0.015,0.797,0.412,0.78,0.873c-0.029,0.844,0.365,0.761,0.967,0.607C26.309,12.956,27.598,12.561,28.955,13.019"/>
    <path d="M57.544,7.22c-0.192-0.654,0.176-0.838,0.585-0.917c0.556-0.105,0.696,0.318,0.689,0.731c-0.007,0.469-0.034,1.065-0.679,1.073C57.533,8.114,57.619,7.516,57.544,7.22"/>
  </g>
</svg>
