<svg version="1.1" xmlns="http://www.w3.org/2000/svg" width="210px" height="415px" viewBox="0 0 210 415" class="info icon" preserveAspectRatio="xMidYMid meet"><path fill-rule="evenodd" clip-rule="evenodd" d="M79.756,175.312c4.427-11.382-1.271-17.078-6.34-17.078c-23.407,0-53.804,55.063-65.174,55.063c-4.447,0-8.242-4.442-8.242-8.235c0-11.396,27.845-37.972,36.089-46.203c25.308-24.05,58.228-42.404,94.938-42.404c27.209,0,56.333,16.449,33.546,77.86l-45.579,123.406c-3.783,9.495-10.746,25.332-10.746,35.454c0,4.425,2.518,8.866,7.581,8.866c18.978,0,53.807-53.807,62.672-53.807c3.158,0,7.58,3.787,7.58,9.486c0,18.355-74.041,96.846-137.973,96.846c-22.787,0-38.61-10.748-38.61-34.804c0-30.376,21.513-82.281,25.965-93.05L79.756,175.312z M113.927,50.624c0-27.843,24.048-50.624,51.9-50.624c25.332,0,43.677,17.076,43.677,43.033c0,29.128-24.041,50.652-52.526,50.652C131.027,93.685,113.927,76.585,113.927,50.624"/></svg>