<svg version="1.1" xmlns="http://www.w3.org/2000/svg" width="24px" height="24px" viewBox="0 0 24 24" class="icon text" preserveAspectRatio="xMidYMid meet">
	<path fill="#fff" d="M13.16,0l0.176,3.727H12.89c-0.086-0.656-0.203-1.125-0.352-1.406c-0.242-0.453-0.564-0.787-0.967-1.002S10.64,0.996,9.984,0.996H7.746v12.141c0,0.977,0.105,1.586,0.316,1.828c0.297,0.328,0.754,0.492,1.371,0.492h0.551v0.434H3.246v-0.434h0.562c0.672,0,1.148-0.203,1.43-0.609c0.172-0.25,0.258-0.82,0.258-1.711V0.996h-1.91c-0.742,0-1.27,0.055-1.582,0.164C1.598,1.309,1.25,1.594,0.961,2.016S0.5,3.008,0.445,3.727H0L0.188,0H13.16z"/>
</svg>