<svg version="1.1" xmlns="http://www.w3.org/2000/svg" width="228px" height="228px" class="icon magnifying-glass" preserveAspectRatio="xMidYMid meet" viewBox="0 0 228 228"><path class="reflection" d="M96.999,162.436c-17.655,0-34.254-6.875-46.739-19.359c-25.772-25.771-25.772-67.706,0-93.479c3.515-3.515,9.213-3.515,12.728,0c3.515,3.515-27.96,40.959,6.601,75.519c33.823,33.823,70.634,1.716,74.149,5.231c3.515,3.515,3.515,9.213,0,12.728C131.254,155.561,114.655,162.436,96.999,162.436"/><path d="M226.036,188.242l-45.055-44.501c-0.2-0.197-0.466-0.309-0.757-0.381c7.812-13.844,12.274-29.83,12.274-46.859c0-52.743-42.756-95.5-95.5-95.5c-52.742,0-95.5,42.757-95.5,95.5c0,52.743,42.758,95.5,95.5,95.5c16.557,0,32.128-4.216,45.702-11.627c-0.071,0.689,0.062,1.279,0.451,1.665l45.056,44.501c1.115,1.102,3.801,0.187,6.001-2.04l29.859-30.232C226.27,192.04,227.151,189.344,226.036,188.242 M17.173,96.501c0-44.017,35.811-79.826,79.826-79.826c44.018,0,79.827,35.809,79.827,79.826s-35.81,79.827-79.827,79.827C52.984,176.328,17.173,140.519,17.173,96.501"/></svg>