<svg version="1.1" xmlns="http://www.w3.org/2000/svg" width="72px" height="64px" viewBox="0 0 72 64" preserveAspectRatio="xMidYMid meet" class="make-your-own icon">
	<path d="M45.075,55.061c0,1.185-0.963,2.147-2.147,2.147H8.589c-1.184,0-2.147-0.963-2.147-2.147V20.683c0-1.185,0.963-2.147,2.147-2.147h29.755l6.273-6.274c-0.547-0.109-1.111-0.168-1.69-0.168H8.589C3.845,12.094,0,15.938,0,20.683v34.378c0,4.744,3.845,8.59,8.589,8.59h34.338c4.744,0,8.59-3.846,8.59-8.59V35.995l-6.442,6.441V55.061z"/>
	<path d="M62.976,18.463l-9.244-9.242L26,36.954h-0.003l-0.001,0.003h-0.001l0.001,0.001l-4.45,13.689l13.691-4.448l0.001,0.001v-0.001h0.003v-0.003L62.976,18.463z M32.354,38.444L30.83,36.92l22.926-22.924l1.523,1.521L32.354,38.444z"/>
	<rect x="57.998" y="3.361" transform="matrix(-0.7071 -0.7071 0.7071 -0.7071 104.7456 58.7132)" width="13.07" height="8.603"/>
</svg>
