<svg version="1.1" xmlns="http://www.w3.org/2000/svg" preserveAspectRatio="xMinYMid meet" width="98.55px" height="98.501px" viewBox="0 0 98.55 98.501" class="icon object"><path d="M21.851,65.556L0,98.502l32.863-22.014c-2.028-1.658-4.025-3.46-5.961-5.395C25.108,69.299,23.419,67.444,21.851,65.556 M87.38,11.169c-9.514-9.514-20.678-13.776-24.935-9.52c-1.302,1.303-1.804,3.253-1.604,5.603c-0.088,1.924-0.327,3.692-0.699,5.314L43.728,28.981c-5.035,1.432-9.881,1.523-12.484,1.432c-5.5-1.72-10.145-1.45-12.834,1.239c-5.964,5.963-0.066,21.527,13.17,34.763c13.236,13.236,28.799,19.133,34.762,13.17c2.271-2.271,2.817-5.936,1.898-10.332l0.053,0.052c0,0-0.941-7.566,1.394-15.295l15.463-15.463c1.872-0.469,3.944-0.76,6.243-0.831c2.308,0.177,4.224-0.328,5.506-1.612C101.156,31.848,96.896,20.685,87.38,11.169"/></svg>