<svg version="1.1" xmlns="http://www.w3.org/2000/svg" width="25px" height="25px" viewBox="0 0 25 25" class="icon draw" preserveAspectRatio="xMidYMid meet"><path d="M10.487,14.811l2.376,2.375l7.352-7.353L17.84,7.458L10.487,14.811z M7.945,17.352L7.12,16.526l2.651-2.651l-1.781-1.75L2.043,18.01l-1.349,6.324l6.543-1.523l5.735-5.734l-2.375-2.375L7.945,17.352z M5.911,20.412l-2.402,1.094l1.083-2.414l1.212-1.212l0.175,1.156L7.123,19.2L5.911,20.412z M19.136,0.823l-2.59,2.589l5.046,5.045l2.589-2.59L19.136,0.823z M15.295,5.007l-7.704,7.488L9.56,14.09l7.454-7.458L15.295,5.007z"/></svg>