<svg version="1.1" xmlns="http://www.w3.org/2000/svg" width="32px" height="32px" viewBox="0 0 32 32" class="icon ruler" preserveAspectRatio="xMidYMid meet"><path d="M24.953,2L2.999,23.955L9.045,30L30.999,8.047L24.953,2z M8.129,27.057l-2.938-2.938l0.548-0.546l2.937,2.938L8.129,27.057z M8.791,23.845L7.13,22.182l0.544-0.547l1.664,1.663L8.791,23.845z M10.729,21.907l-1.662-1.663l0.545-0.546l1.664,1.663L10.729,21.907z M12.666,19.97l-1.663-1.663l0.547-0.546l1.663,1.663L12.666,19.97z M14.604,18.032L12.94,16.37l0.547-0.546l1.663,1.662L14.604,18.032z M17.816,17.37l-2.938-2.938l0.547-0.547l2.938,2.939L17.816,17.37z M18.477,14.157l-1.661-1.662l0.547-0.548l1.662,1.664L18.477,14.157z M20.415,12.221l-1.663-1.664l0.546-0.546l1.664,1.661L20.415,12.221zM22.352,10.282L20.688,8.62l0.548-0.546l1.662,1.663L22.352,10.282z M24.289,8.344l-1.663-1.661l0.546-0.547l1.664,1.663L24.289,8.344z M24.563,4.746l0.548-0.546l2.938,2.937l-0.547,0.547L24.563,4.746z"/></svg>