<svg version="1.1" xmlns="http://www.w3.org/2000/svg" width="251.729px" height="140.72px" viewBox="0 0 251.729 140.72" class="embed type illustration">
	<g stroke-width="1.5" fill="none">
		<path stroke-width="2" d="M212.252,82.787c-1.557,0.375-2.709-0.698-3.942-1.248c-6.373-2.833-13.025-5.011-19.333-7.938c-6.978-3.239-14.327-5.21-21.642-7.296c-7.852-2.24-15.606-4.862-23.615-6.537c-4.24-0.887-8.496-1.694-12.751-2.512c-2.526-0.487-4.955-1.412-7.537-1.641c0,0,4.497,0.291,0,0"/>
		<path stroke-width="2" d="M209.228,77.828c0.856,1.484,2.764,2.321,3.061,4.021l0.328,1.949c-2.17,1.642-4.746,1.064-7.17,1.31"/>
		<path d="M50.926,9.66c-3.917,0.383-7.85,0.14-11.778,0.358c-6.549,0.364-21.862-0.487-23.029-0.539c-7.842-0.348-3.3,0.399-11.145-0.038c-3.405-0.19-3.699,0.441-3.969,3.944C0.398,21.31,1.07,29.229,1.036,37.152c-0.02,5.031,0.219,10.121,0.913,15.155c0.339,2.457-0.225,4.941-0.209,7.434c0.043,6.458,0.408,14.468,0.654,20.885c0.185,4.876,0.215,8.799-0.458,13.71c-0.21,1.531-0.389,1.287,3.708,1.483c4.874,0.23,9.687-0.216,14.573-0.489c3.041-0.17,6.087,0.235,9.11,0.364c4.647,0.197,9.286,0.033,13.924,0.11c1.334,0.021,2.735-0.015,4.082,0.004c6.575,0.084,13.141-0.335,19.695-0.617c7.773-0.335,15.539-0.073,23.298-0.335c4.406-0.148,8.807-0.549,13.223-0.569c1.296-0.005,1.738-0.683,1.735-1.884c-0.006-2.011-0.061-4.001-0.266-6.018c-0.313-3.096,0.027-6.225-0.251-9.368c-0.606-6.862,0.113-13.769-0.11-20.636c-0.385-11.929,0.207-23.873-0.543-35.783c-0.252-4.013-0.436-8.005-0.345-12.031c-3.281-0.843-6.584-0.006-9.836,0.15c-2.379,0.114-4.874,0.576-7.227,0.526c-6.091-0.126-12.163,0.333-18.249,0.17c-4.879-0.131-9.766,0.095-14.646,0.031L50.926,9.66z"/>
		<path d="M59.289,78.531c0.883,3.369,4.044,2.923,6.399,3.728c2.618,0.894,5.463,0.526,8.151,1.571c2.113,0.822,3.574-1.085,4.83-2.654c2.766-3.457,4.239-7.561,5.821-11.614c0.671-1.718-0.259-2.639-1.622-3.137c-3.088-1.13-6.057-2.592-9.268-3.383c-1.904-0.469-3.5-1.703-5.461-2.099c-1.436-0.29-2.231-0.04-2.702,1.411c-1.409,4.352-3.179,8.568-5.385,12.571c-0.618,1.123-0.159,2.333-0.757,3.366"/>
		<path d="M31.985,95.133c-0.371-2.666,0.834-5.24,0.445-7.912c-0.23-1.592,0.693-3.177-0.103-4.815c-1.003-2.063-2.892-2.285-4.765-2.483c-2.232-0.238-4.52-0.497-6.705-0.518c-3.101-0.029-6.045,1.237-7.57,4.452c-0.582,1.226-1.429,2.329-1.968,3.569c-0.573,1.323-1.47,2.216-2.739,2.802c-1.971,0.909-3.061,2.598-3.952,4.462"/>
		<path d="M104.274,84.456c-1.689,0.338-3.326,0.17-5.049-0.043c-3.49-0.431-6.909,0.445-10.11,1.848c-5.734,2.51-11.652,3.558-17.83,2.38c-3.041-0.579-6.082-0.234-9.118-0.417c-3.094-0.187-5.547-1.154-6.892-4.255c-0.945-2.182-2.648-3.668-5.146-3.986"/>
		<path d="M41.449,33.431c-1.251,3.093-2.393,6.251-4.323,9.004c-1.568,2.237-3.644,3.788-6.017,5.292c-3.289,2.085-6.75,4.257-8.769,8c-1.159,2.148-1.161,4.343-0.899,6.47c0.094,0.756-0.262,1.483,0.029,2.185"/>
		<path d="M96.331,17.997c0.105,4.966-0.356,9.782-4.428,13.317c-3.164,2.746-4.705,6.367-6.03,10.18c-0.451,1.295-0.621,2.528-0.308,3.842"/>
		<path d="M38.487,94.335c0.906-3.538,1.27-7.176,1.925-10.759c0.345-1.892-0.832-3.11-2.269-4.141c-2.38-1.707-4.96-2.94-7.837-3.555c-4.753-1.019-7.543-4.356-9.578-8.426c-0.401-0.801,0.071-1.93,0.496-2.839"/>
		<path d="M30.059,47.311c-1.497-1.701-3.235-3.174-4.456-5.138c-1.385-2.228-3.621-3.038-6.136-3.302c-1.639-0.171-3.028-0.69-4.065-2.221c-1.714-2.525-4.223-3.666-7.321-3.332"/>
		<path d="M66.4,24.452c-0.687,1.983-1.377,3.967-2.131,6.142c1.269,1.409,3.024,1.683,4.816,1.553c0.653-0.047,2.547-5.439,2.319-6.13c-0.363-1.094-2.735-1.871-4.764-1.559"/>
		<path d="M37.958,48.228c-2.226,1.639-3.832,3.699-4.754,6.353c-0.557,1.6-2.029,2.583-3.169,3.785c-0.971,1.022-1.968,2.025-2.279,3.529c-0.737,3.558-2.103,4.197-5.577,2.755c-0.285-0.117-0.626-0.399-0.955-0.034"/>
		<path d="M65.8,10.031c-1.244,2.989-2.249,3.542-5.607,3.526c-0.577-0.003-1.319,0.448-1.964,0.811c-5.939,3.349-10.482,7.973-13.578,14.08c-0.79,1.559-2.109,2.849-3.185,4.263"/>
		<path d="M80.352,23.359c-0.96,0.495-1.479,1.604-1.415,2.356c0.22,2.634-1.121,4.017-3.04,5.531c-2.112,1.667-3.037,4.489-5.458,6.086c-2.163,1.428-2.978,3.946-3.827,6.416c0.843,1.371,1.769,2.728,3.047,3.838c2.629,2.286,7.428,2.841,10.273,0.926c1.054-0.709,2.206-1.221,3.25-1.973c2.139-1.543,4.753-1.023,7.17-0.788c1.649,0.16,3.466,2.43,2.962,3.838c-1.7,4.75,0.382,8.829,1.908,13.032c0.919,2.529,1.936,5.026,2.202,7.739"/>
		<path d="M66.401,43.657c-0.24-0.006-0.575,0.09-0.706-0.032c-2.88-2.706-6.61-3.162-10.205-4.185c-2.989-0.85-6.047-1.821-8.613-3.899c-1.536-1.243-3.523-1.902-5.416-2.59"/>
		<path d="M45.539,13.847c0.076,0.162,0.012,0.396-0.254,0.463c-5.715,1.412-11.401,3.327-17.314,0.808c-0.548-0.233-1.35-0.264-1.895-0.044c-2.433,0.984-4.924,1.294-7.433,1.312c-1.69,0.01-3.39-0.111-5.088-0.249c-1.719-0.14-2.983,0.478-4.124,1.609l-8.298,3.626"/>
		<path d="M58.548,40.82c-0.274,1.108-1.287,1.596-1.983,2.347c-1.979,2.132-2.325,4.536-1.953,7.412c0.377,2.912,0.519,6.3-1.687,8.463c-1.39,1.361-3.291,2.403-4.774,3.841c-0.61,0.592-0.911,1.564-1.957,1.636"/>
		<path d="M87.743,73.479c-0.864,1.485-1.136,3.283-2.505,4.507c-2.189,1.954-1.778,4.625-1.866,7.148c-0.031,0.88-0.045,1.759-0.066,2.639"/>
		<path d="M34.797,59.433c0.335,0.222,0.458,0.838,0.937,0.727c1.709-0.401,1.95-2.04,2.426-3.305c0.413-1.092-0.323-1.869-1.682-1.966c-0.68,1.371-1.606,2.658-1.675,4.304"/>
		<path d="M61.531,56.02c-1.555-2.377-3.871-3.778-6.358-4.96"/>
		<path d="M36.579,26.587c0.815-0.599,1.6,0.013,2.396,0.068c1.431-3.844,1.254-4.265-2.245-4.899c0.142,1.571-2.803,2.727-0.385,4.584"/>
		<path d="M34.886,36.628c-0.352-0.845-1.34-0.941-1.853-1.514c-1.354-1.517-2.285-1.009-3.18,0.333c0.365,1.724,1.076,3.115,2.566,4.067c1.45-0.323,1.692-1.738,2.461-2.646"/>
		<path d="M228.589,107.571c-5.675-0.365-11.363-0.341-17.045-0.637c-6.861-0.355-13.756-0.053-20.636-0.093c-7.359-0.042-14.72-0.167-22.08-0.218c-1.52-0.011-3.04,0.146-4.56,0.226"/>
		<path d="M229.309,27.65c-1.456-1.3-3.064-0.132-4.561-0.144c-4.238-0.034-8.477,0.484-12.721,0.598c-4.881,0.13-9.761,0.238-14.642,0.423c-8.069,0.305-16.157,0.126-24.237,0.057c-2.402-0.02-4.773,0.717-7.217,0.09c-0.73-0.188-1.72,0.236-2.383,0.896"/>
		<path d="M232.908,101.089c-13.68,0-27.368,0.286-41.036-0.116c-7.124-0.21-14.245-0.164-21.362-0.396c-1.942-0.062-3.813,0.86-5.762,0.273"/>
		<path d="M188.269,1.01c-2.96,0.61-5.96,0.256-8.87-0.086c-3.582-0.421-7.08,0.018-10.562,0.392c-5.754,0.617-11.524,0.937-17.29,1.342c-1.381,0.097-2.36,0.187-2.17,1.954c0.862,8.005-0.584,15.985-0.289,24.001c0.231,6.271,0.601,12.499,1.412,18.729c0.389,2.987,0.338,6.073,0.581,9.107c0.604,7.589-0.817,12.363-0.189,19.936c0.274,3.297,0.192,8.12,0.5,11.389c0.663,7.032-0.343,14.362,0.25,21.361c0.55,6.486,0.386,12.241,1,18.729c0.267,2.817,0.281,7.648,0,10.771c4.061,0,9.088,0.144,12.821-0.184c2.995-0.261,5.926,0.174,8.887,0.092c2.399-0.064,4.802,0.044,7.199-0.023c5.372-0.154,10.752,0.016,16.074,0.563c7.357,0.758,14.731,0.408,22.092,0.77c4.93,0.241,9.914-0.189,14.875,0.116c0.611,0.038,1.034-0.315,1.442-0.716c3.035-2.966,6.029-5.974,9.136-8.862c1.889-1.758,3.003-4.112,4.965-5.845c1.391-1.226,0.641-3.342,0.687-4.978c0.23-8.168-0.296-16.327-0.842-24.48c-0.177-2.628-0.036-5.277-0.026-7.918c0.026-7.295-0.541-14.571-1.055-21.833c-0.396-5.606-0.584-11.197-0.634-16.806c-0.052-5.921-0.19-11.84-0.223-17.761c-0.047-8.092-1.531-16.124-0.98-24.24c0.075-1.115-0.132-2.262,0.043-3.354c0.271-1.696-0.47-1.952-1.953-1.957c-6.247-0.022-12.479,0.005-18.726,0.438c-4.778,0.332-9.58-0.609-14.395-0.415c-6.009,0.243-11.994-0.747-17.997-0.428c-1.843,0.098-3.681,0.163-5.522,0.196"/>
		<path d="M224.988,11.81c-2.773-0.624-5.615-0.336-8.401-0.392c-6.313-0.125-12.637-0.266-18.961,0.103c-4.152,0.243-8.336,0.067-12.474,0.558c-2.646,0.314-5.294,0.271-7.922,0.166c-4.664-0.188-9.269,0.753-13.922,0.526c-1.007-0.049-2.003,0.383-1.619,1.416c0.8,2.151,0.19,4.354,0.598,6.515c0.301,1.597,1.106,2.015,2.461,1.9c5.835-0.496,11.694,0.09,17.516-0.299c4.561-0.304,9.131-0.328,13.693-0.812c5.243-0.556,10.543-0.953,15.834-0.097c4.948,0.802,9.915-0.244,14.879-0.008c2.636,0.126,5.286,0.118,8.342-0.39c0.087-3.082-1.576-6.176-1.028-9.552c-2.995-0.489-5.875,0.874-8.755,0.126"/>
		<path d="M214.188,119.571c-2.561-0.649-5.121,0.045-7.68-0.008c-6.888-0.139-13.771,0.288-20.633,0.613c-6.02,0.285-12.012-0.424-18.01,0.092c-1.347,0.116-2.718,0.655-4.078,0.022"/>
		<path d="M233.868,33.65c-3.35,0.493-6.72,0.148-10.08,0.241c-8.238,0.226-16.475-0.214-24.727,0.387c-6.366,0.463-12.794,0.17-19.192,0.068c-5.373-0.085-10.722,0.302-16.081,0.504"/>
		<path d="M223.788,113.81c-3.439,0.463-6.878,0.271-10.32,0.013c-1.033-0.078-2.079-0.018-3.119-0.012c-8.961,0.046-17.925-0.28-26.879-0.146c-5.298,0.081-10.556-0.621-15.841-0.335c-0.804,0.042-1.631-0.145-2.4,0.24"/>
		<path d="M213.229,47.57c-2.24-0.387-4.45,0.239-6.726,0.091c-5.503-0.361-11.047-0.527-16.552-0.268c-8.56,0.402-17.123,0.422-25.683,0.656"/>
		<path d="M232.429,39.41c-4.711,0.631-9.404,0.753-14.167,0.314c-3.967-0.365-8-0.224-11.991-0.033c-4.16,0.199-8.348,0.112-12.476,0.507c-10.149,0.97-20.337,0.472-30.486,1.132"/>
		<path d="M236.748,125.571c1.404,1.389,0.249,3.045,0.464,4.562c0.364,2.564-0.447,5.108-0.224,7.677"/>
		<path d="M247.309,127.01c-0.765-0.042-1.445,0.197-2.171,0.447c-2.638,0.909-5.125,0.148-7.549-0.927"/>
	</g>
</svg>
