<svg version="1.1" xmlns="http://www.w3.org/2000/svg" width="72px" height="72px" viewBox="0 0 72 72" preserveAspectRatio="xMidYMid meet"  class="icon twitter">
	<path d="M36,0C16.118,0,0,16.117,0,36s16.118,36,36,36s36-16.117,36-36S55.882,0,36,0 M32.07,45.868c1.087,1.087,2.404,1.63,3.958,1.63H47.2c1.551,0,2.882,0.557,3.991,1.664c1.106,1.106,1.662,2.435,1.662,3.984c0,1.549-0.556,2.879-1.662,3.985c-1.109,1.106-2.437,1.66-3.989,1.66h-11.17c-4.652,0-8.63-1.649-11.932-4.952c-3.303-3.303-4.952-7.28-4.952-11.934V19.369c0-1.596,0.549-2.935,1.649-4.022c1.099-1.084,2.444-1.629,4.029-1.629c1.54,0,2.863,0.554,3.962,1.663c1.101,1.105,1.652,2.433,1.652,3.984v5.647h16.742c1.558,0,2.891,0.552,4.004,1.662c1.111,1.105,1.667,2.433,1.667,3.983c0,1.549-0.556,2.879-1.662,3.986c-1.109,1.105-2.44,1.662-3.991,1.662H30.44v5.597C30.44,43.458,30.982,44.777,32.07,45.868"/>
</svg>
