<svg version="1.1" xmlns="http://www.w3.org/2000/svg" width="458px" height="452px" viewBox="0 0 458 452" class="icon weather" preserveAspectRatio="xMidYMid meet"><path d="M411.683,320.966c1.684-6.473,2.584-13.309,2.584-20.337c0-44.345-35.955-80.33-80.315-80.33c-33.356,0-61.935,20.353-74.103,49.293c-10.398-12.263-25.932-20.041-43.296-20.041c-31.393,0-56.838,25.438-56.838,56.849c0,5.393,0.769,10.611,2.16,15.58c-25.638,9.39-43.92,34.009-43.92,62.936c0,36.972,29.973,66.988,66.991,66.988h206.526c37.053,0,67.025-30.017,67.025-66.988C458.497,354.915,438.825,329.553,411.683,320.966 M183,66.405c10.662,0,19.295-8.635,19.295-19.313V19.298C202.295,8.651,193.662,0,183,0c-10.628,0-19.261,8.651-19.261,19.298v27.794C163.739,57.77,172.372,66.405,183,66.405 M279.11,106.218c4.936,0,9.894-1.895,13.639-5.655l19.684-19.673c7.523-7.519,7.523-19.734,0-27.254c-7.52-7.558-19.75-7.558-27.273,0l-19.685,19.65c-7.523,7.518-7.523,19.751,0,27.277C269.234,104.323,274.187,106.218,279.11,106.218 M73.285,100.563c3.761,3.76,8.699,5.655,13.636,5.655c4.941,0,9.879-1.895,13.64-5.655c7.534-7.526,7.534-19.759,0-27.277l-19.655-19.65c-7.523-7.558-19.754-7.558-27.305,0c-7.488,7.52-7.488,19.735,0,27.254L73.285,100.563z M299.647,183.015c0,6.005,2.715,11.366,6.998,14.898c8.779-2.338,17.937-3.579,27.306-3.579c8.798,0,17.364,1.092,25.538,3.136c4.01-3.528,6.542-8.683,6.542-14.44c0-10.655-8.647-19.291-19.295-19.291h-27.793C308.278,163.739,299.647,172.375,299.647,183.015 M156.545,249.42c-26.389-10.531-44.998-36.266-44.998-66.391c0-39.501,31.982-71.515,71.487-71.515c39.471,0,71.485,32.014,71.485,71.515c0,16.499-5.624,31.694-15.009,43.793c4.575,1.309,9.024,3.024,13.292,5.102c7.078-8.356,15.388-15.533,24.576-21.32c2.566-8.752,3.989-18.018,3.989-27.574c0-54.229-44.115-98.348-98.333-98.348c-54.222,0-98.336,44.119-98.336,98.348c0,39.276,23.155,73.224,56.542,88.972C145.082,263.641,150.265,256.026,156.545,249.42 M73.285,265.49l-19.684,19.672c-7.523,7.521-7.523,19.719,0,27.271c3.76,3.76,8.713,5.626,13.634,5.626c4.956,0,9.893-1.866,13.671-5.626l19.655-19.688c7.534-7.52,7.534-19.715,0-27.255C93.038,257.954,80.81,257.954,73.285,265.49 M66.402,183.03c0-10.655-8.651-19.291-19.31-19.291H19.296C8.651,163.739,0,172.375,0,183.015c0,10.647,8.651,19.281,19.296,19.281h27.796C57.751,202.296,66.402,193.693,66.402,183.03"/></svg>