<svg version="1.1" xmlns="http://www.w3.org/2000/svg" width="20px" height="20px" viewBox="0 0 20 20" preserveAspectRatio="xMidYMid meet" class="icon windowed">
	<path d="M19.877,1.61l-1.523-1.533l-1.642,1.653L14.992,0v5.021h4.987l-1.745-1.756L19.877,1.61z M16.737,18.253l1.643,1.653l1.522-1.533l-1.642-1.653l1.719-1.73h-4.987v5.02L16.737,18.253z M0.103,18.399l1.523,1.533l1.642-1.654l1.719,1.731v-5.021H0l1.745,1.756L0.103,18.399z M1.6,0.104L0.077,1.637L1.719,3.29L0,5.021h4.987V0L3.243,1.756L1.6,0.104z M15.759,12.038V8.204c0-1.587-1.288-2.875-2.875-2.875H6.897c-1.588,0-2.875,1.287-2.875,2.875v3.834c0,1.588,1.287,2.875,2.875,2.875h5.987C14.471,14.913,15.759,13.626,15.759,12.038z" />
</svg>