<?xml version="1.0" encoding="UTF-8"?>
<svg xmlns="http://www.w3.org/2000/svg" xmlns:xlink="http://www.w3.org/1999/xlink" width="280.228821pt" height="280.228821pt" viewBox="0 0 280.228821 280.228821" version="1.1">
<g id="surface1">
<path style="fill:none;stroke-width:9.6;stroke-linecap:butt;stroke-linejoin:round;stroke:rgb(100%,100%,100%);stroke-opacity:1;stroke-miterlimit:4;" d="M 275.429688 140.113281 C 275.429688 214.808594 214.808594 275.429688 140.113281 275.429688 C 65.421875 275.429688 4.800781 214.808594 4.800781 140.113281 C 4.800781 65.421875 65.421875 4.800781 140.113281 4.800781 C 214.808594 4.800781 275.429688 65.421875 275.429688 140.113281 Z M 275.429688 140.113281 "/>
<path style=" stroke:none;fill-rule:nonzero;fill:rgb(100%,100%,100%);fill-opacity:1;" d="M 113.675781 59.667969 C 113.675781 52.898438 116.25 47.125 121.398438 42.347656 C 126.542969 37.570312 132.710938 35.179688 139.894531 35.179688 C 147.1875 35.179688 153.40625 37.570312 158.554688 42.347656 C 163.699219 47.125 166.273438 52.898438 166.273438 59.667969 C 166.273438 66.339844 163.699219 72.113281 158.554688 76.988281 C 153.40625 81.769531 147.1875 84.15625 139.894531 84.15625 C 132.710938 84.15625 126.542969 81.769531 121.398438 76.988281 C 116.25 72.113281 113.675781 66.339844 113.675781 59.667969 Z M 164.023438 105.511719 L 164.023438 246.464844 L 116.25 246.464844 L 116.25 105.511719 L 164.023438 105.511719 "/>
</g>
</svg>
