<svg width="469" height="455" xmlns="http://www.w3.org/2000/svg">
 <g>
  <title>Layer 1</title>
  <path fill="none" stroke-width="10" stroke="black" d="m176.483994,391.786987l119.856003,45.511017v-378.291004l-119.856003,-45.5129v378.292888l0,0l0,0l0,0l0,0l0,0l0,0zm-158.508993,50.484009l132.952002,-50.484009v-378.292987l-132.952002,50.485999v378.290997l0,0l0,0l0,0l0,0l0,0l0,0l0,0l0,0l0,0l0,0l0,0l0,0l0,0l0,0zm303.920996,-383.021996v378.291008l133.276001,-50.606018v-378.293981l-133.276001,50.608991l0,0l0,0l0,0l0,0l0,0l0,0l0,0l0,0l0,0l0,0l0,0l0,0l0,0z" id="svg_1"/>
 </g>
</svg>